<svg width="160" height="160" viewBox="0 0 160 160" fill="none" xmlns="http://www.w3.org/2000/svg">
<rect width="160" height="160" fill="white"/>
<path d="M40.2646 115.68V121.44C40.2646 122.123 40.2433 122.784 40.2006 123.424C40.158 124.064 40.1153 124.565 40.0726 124.928H40.2646C40.734 124.203 41.374 123.595 42.1846 123.104C42.9953 122.592 44.0513 122.336 45.3526 122.336C47.358 122.336 48.9793 123.093 50.2166 124.608C51.4753 126.123 52.1046 128.352 52.1046 131.296C52.1046 134.283 51.4753 136.533 50.2166 138.048C48.958 139.563 47.3046 140.32 45.2566 140.32C43.9553 140.32 42.91 140.085 42.1206 139.616C41.3526 139.147 40.734 138.603 40.2646 137.984H39.9766L39.2406 140H36.2326V115.68H40.2646ZM44.2006 125.6C42.75 125.6 41.7366 126.037 41.1606 126.912C40.5846 127.787 40.286 129.131 40.2646 130.944V131.296C40.2646 133.152 40.542 134.571 41.0966 135.552C41.6726 136.533 42.7286 137.024 44.2646 137.024C45.4593 137.024 46.3766 136.533 47.0166 135.552C47.6566 134.549 47.9766 133.12 47.9766 131.264C47.9766 129.365 47.646 127.947 46.9846 127.008C46.3446 126.069 45.4166 125.6 44.2006 125.6ZM71.7519 131.296C71.7519 134.176 71.0052 136.405 69.5119 137.984C68.0185 139.541 65.9919 140.32 63.4319 140.32C61.8532 140.32 60.4452 139.968 59.2079 139.264C57.9705 138.56 56.9999 137.536 56.2959 136.192C55.5919 134.848 55.2399 133.216 55.2399 131.296C55.2399 128.416 55.9759 126.208 57.4479 124.672C58.9412 123.115 60.9679 122.336 63.5279 122.336C65.1279 122.336 66.5465 122.688 67.7839 123.392C69.0212 124.075 69.9919 125.088 70.6959 126.432C71.3999 127.755 71.7519 129.376 71.7519 131.296ZM59.3679 131.296C59.3679 133.131 59.6879 134.549 60.3279 135.552C60.9892 136.555 62.0452 137.056 63.4959 137.056C64.9465 137.056 65.9919 136.555 66.6319 135.552C67.2932 134.549 67.6239 133.131 67.6239 131.296C67.6239 129.461 67.2932 128.053 66.6319 127.072C65.9919 126.091 64.9359 125.6 63.4639 125.6C62.0345 125.6 60.9892 126.091 60.3279 127.072C59.6879 128.053 59.3679 129.461 59.3679 131.296ZM82.6401 137.088C83.1308 137.088 83.6108 137.045 84.0801 136.96C84.5708 136.853 85.0188 136.736 85.4241 136.608V139.616C84.9975 139.808 84.4428 139.968 83.7601 140.096C83.0775 140.245 82.3628 140.32 81.6161 140.32C80.6348 140.32 79.7388 140.16 78.9281 139.84C78.1175 139.499 77.4775 138.923 77.0081 138.112C76.5388 137.301 76.3041 136.171 76.3041 134.72V125.696H73.9681V123.936L76.5281 122.528L77.8081 118.848H80.3361V122.656H85.2641V125.696H80.3361V134.688C80.3361 135.499 80.5495 136.107 80.9761 136.512C81.4028 136.896 81.9575 137.088 82.6401 137.088ZM108.792 122.336C110.755 122.336 112.227 122.837 113.208 123.84C114.211 124.843 114.712 126.464 114.712 128.704V140H110.68V129.472C110.68 126.891 109.699 125.6 107.736 125.6C106.328 125.6 105.325 126.059 104.728 126.976C104.131 127.893 103.832 129.227 103.832 130.976V140H99.8001V129.472C99.8001 126.891 98.8081 125.6 96.8241 125.6C95.3521 125.6 94.3388 126.112 93.7841 127.136C93.2295 128.16 92.9521 129.621 92.9521 131.52V140H88.9201V122.656H92.0241L92.6001 124.928H92.8241C93.3361 124.032 94.0508 123.381 94.9681 122.976C95.9068 122.549 96.8775 122.336 97.8801 122.336C99.1815 122.336 100.269 122.56 101.144 123.008C102.04 123.435 102.723 124.107 103.192 125.024H103.512C104.045 124.085 104.792 123.403 105.752 122.976C106.712 122.549 107.725 122.336 108.792 122.336ZM123.796 140H119.764V115.68H123.796V140Z" fill="#333333"/>
<mask id="mask0" mask-type="alpha" maskUnits="userSpaceOnUse" x="32" y="0" width="96" height="96">
<path d="M32 16C32 7.16345 39.1634 0 48 0H112C120.837 0 128 7.16344 128 16V80C128 88.8366 120.837 96 112 96H48C39.1634 96 32 88.8366 32 80V16Z" fill="black"/>
</mask>
<g mask="url(#mask0)">
<path d="M32 16C32 7.16345 39.1634 0 48 0H112C120.837 0 128 7.16344 128 16V80C128 88.8366 120.837 96 112 96H48C39.1634 96 32 88.8366 32 80V16Z" fill="#CC5566"/>
<path d="M33 16C33 7.71573 39.7157 1 48 1H112C120.284 1 127 7.71573 127 16V80C127 88.2843 120.284 95 112 95H48C39.7157 95 33 88.2843 33 80V16Z" stroke="black" stroke-opacity="0.15" stroke-width="2"/>
<g style="mix-blend-mode:soft-light">
<path d="M32 16C32 7.16345 39.1634 0 48 0H112C120.837 0 128 7.16344 128 16V80C128 88.8366 120.837 96 112 96H48C39.1634 96 32 88.8366 32 80V16Z" fill="url(#paint0_linear)"/>
</g>
<path opacity="0.8" d="M32 96L32 -12L116 96L32 96Z" fill="url(#paint1_linear)"/>
<path opacity="0.8" d="M128 24L32 96L32 24L128 24Z" fill="url(#paint2_linear)"/>
</g>
<defs>
<linearGradient id="paint0_linear" x1="128" y1="-2.86102e-06" x2="80" y2="96" gradientUnits="userSpaceOnUse">
<stop stop-color="white" stop-opacity="0.9"/>
<stop offset="1" stop-opacity="0.3"/>
</linearGradient>
<linearGradient id="paint1_linear" x1="74" y1="36" x2="74" y2="96" gradientUnits="userSpaceOnUse">
<stop stop-color="white" stop-opacity="0.9"/>
<stop offset="1" stop-color="white" stop-opacity="0"/>
</linearGradient>
<linearGradient id="paint2_linear" x1="86" y1="84" x2="86" y2="24" gradientUnits="userSpaceOnUse">
<stop stop-color="white" stop-opacity="0.9"/>
<stop offset="1" stop-color="white" stop-opacity="0"/>
</linearGradient>
</defs>
</svg>
